<svg xmlns="http://www.w3.org/2000/svg" viewBox="0 0 64 64">
  <defs>
    <linearGradient id="g" x1="0" y1="0" x2="64" y2="0" gradientUnits="userSpaceOnUse">
      <stop offset=".35" stop-color="#0F3D3E"/><stop offset=".65" stop-color="#D9372A"/>
    </linearGradient>
  </defs>
  <circle cx="32" cy="32" r="31" fill="#FAF7F0"/>
  <path d="M32 4 a28 28 0 1 1 0 56 a28 28 0 1 1 0 -56" fill="none" stroke="url(#g)" stroke-width="3"/>
  <path d="M13 33 H51 A19 19 0 0 1 13 33 Z" fill="url(#g)"/>
  <path d="M10 33 H54" stroke="#B8893B" stroke-width="2.5" stroke-linecap="round"/>
  <g fill="none" stroke="#B8893B" stroke-width="2.2" stroke-linecap="round">
    <path d="M25 25 c-3 -4 3 -6 0 -10"/><path d="M32 23 c-3 -4 3 -6 0 -10"/><path d="M39 25 c-3 -4 3 -6 0 -10"/>
  </g>
</svg>
